<svg xmlns="http://www.w3.org/2000/svg">
  <defs>
    
    <symbol viewBox="0 0 24 24" fill="none" id="search">
      <path d="M11 18C12.9333 18 14.5833 17.3176 15.95 15.9529C17.3167 14.5881 18 12.9372 18 11C18 9.06667 17.3167 7.41667 15.95 6.05C14.5833 4.68333 12.9333 4 11 4C9.06282 4 7.41186 4.68333 6.04712 6.05C4.68237 7.41667 4 9.06667 4 11C4 12.9372 4.68237 14.5881 6.04712 15.9529C7.41186 17.3176 9.06282 18 11 18ZM11 19C9.89102 19 8.85159 18.7914 7.88173 18.3741C6.91186 17.9567 6.06442 17.3856 5.33942 16.6606C4.61442 15.9356 4.04327 15.0881 3.62595 14.1183C3.20865 13.1484 3 12.109 3 11C3 9.89487 3.20865 8.85737 3.62595 7.8875C4.04327 6.91763 4.61442 6.06923 5.33942 5.3423C6.06442 4.61538 6.91186 4.04327 7.88173 3.62595C8.85159 3.20865 9.89102 3 11 3C12.1051 3 13.1426 3.20865 14.1125 3.62595C15.0824 4.04327 15.9308 4.61538 16.6577 5.3423C17.3846 6.06923 17.9567 6.91763 18.374 7.8875C18.7913 8.85737 19 9.89487 19 11C19 12.0154 18.8218 12.9724 18.4654 13.8712C18.109 14.7699 17.616 15.5788 16.9865 16.2981L21 20.3116L20.3058 21L16.2923 16.9923C15.5731 17.6218 14.7641 18.1138 13.8654 18.4683C12.9667 18.8228 12.0115 19 11 19Z" fill="currentcolor"/>
    </symbol>

    <symbol viewBox="0 0 24 24" fill="none" id="bubble">
      <path d="M2.46143 21.5385L4.02683 16.2231C3.71016 15.5526 3.45983 14.8653 3.27585 14.1613C3.09188 13.4572 2.9999 12.7368 2.9999 12C2.9999 10.755 3.23606 9.585 3.70838 8.49C4.18071 7.395 4.82173 6.4425 5.63143 5.6325C6.44113 4.8225 7.39327 4.18125 8.48785 3.70875C9.58245 3.23625 10.752 3 11.9966 3C13.2411 3 14.4112 3.23616 15.5068 3.70847C16.6024 4.18081 17.5555 4.82182 18.3659 5.63152C19.1764 6.44122 19.818 7.39337 20.2908 8.48795C20.7635 9.58255 20.9999 10.7521 20.9999 11.9966C20.9999 13.2412 20.7637 14.4113 20.2912 15.5069C19.8187 16.6025 19.1774 17.5556 18.3674 18.366C17.5574 19.1765 16.6049 19.8181 15.5099 20.2909C14.4149 20.7636 13.2449 21 11.9999 21C11.2631 21 10.5427 20.908 9.83865 20.7241C9.13462 20.5401 8.44734 20.2897 7.77683 19.9731L2.46143 21.5385ZM3.9499 20.05L7.1499 19.1C7.40887 19.0333 7.64637 19.0019 7.8624 19.0058C8.07843 19.0096 8.3076 19.0744 8.5499 19.2C9.08323 19.4667 9.64157 19.6667 10.2249 19.8C10.8082 19.9333 11.3999 20 11.9999 20C14.2332 20 16.1249 19.225 17.6749 17.675C19.2249 16.125 19.9999 14.2333 19.9999 12C19.9999 9.76667 19.2249 7.875 17.6749 6.325C16.1249 4.775 14.2332 4 11.9999 4C9.76657 4 7.8749 4.775 6.3249 6.325C4.7749 7.875 3.9999 9.76667 3.9999 12C3.9999 12.6 4.06657 13.1917 4.1999 13.775C4.33323 14.3583 4.53323 14.9167 4.7999 15.45C4.91657 15.6667 4.98228 15.8958 4.99703 16.1375C5.01176 16.3792 4.97938 16.6167 4.8999 16.85L3.9499 20.05Z" fill="currentcolor"/>
    </symbol>

    <symbol viewBox="0 0 24 24" fill="none" id="x">
      <path d="M6.40002 18.6538L5.34619 17.6L10.9462 12L5.34619 6.40002L6.40002 5.34619L12 10.9462L17.6 5.34619L18.6538 6.40002L13.0538 12L18.6538 17.6L17.6 18.6538L12 13.0538L6.40002 18.6538Z" fill="currentcolor"/>
    </symbol>

    <symbol viewBox="0 0 24 24" fill="none" id="edit">
      <path fill-rule="evenodd" clip-rule="evenodd" d="M14.2972 4.18456C15.821 2.66073 18.2916 2.66073 19.8154 4.18456C21.3393 5.70839 21.3393 8.17901 19.8154 9.70284L11.911 17.6073C11.4594 18.0589 11.1936 18.3248 10.8978 18.5554C10.5493 18.8273 10.1721 19.0604 9.77301 19.2506C9.43443 19.412 9.07774 19.5308 8.47182 19.7328L5.69589 20.6581L5.02749 20.8809C4.48535 21.0616 3.88764 20.9205 3.48356 20.5164C3.07948 20.1124 2.93838 19.5146 3.11909 18.9725L4.26719 15.5282C4.46915 14.9223 4.58803 14.5656 4.74939 14.227C4.93958 13.8279 5.17268 13.4507 5.44457 13.1022C5.67525 12.8064 5.94112 12.5406 6.39276 12.0889L14.2972 4.18456ZM5.66705 19.3501L8.03498 18.5608C8.69425 18.341 8.97435 18.2465 9.23524 18.1222C9.55235 17.9711 9.85206 17.7858 10.1291 17.5698C10.3569 17.392 10.5667 17.1838 11.0581 16.6924L17.366 10.3845C16.7088 10.1527 15.8622 9.72304 15.0696 8.93044C14.277 8.13784 13.8473 7.29118 13.6155 6.63398L7.3076 12.9419C6.81622 13.4333 6.60795 13.6431 6.43021 13.8709C6.21416 14.1479 6.02893 14.4476 5.8778 14.7648C5.75347 15.0256 5.65896 15.3058 5.4392 15.965L4.64989 18.3329L5.66705 19.3501ZM14.6294 5.62006C14.6579 5.76586 14.7061 5.96405 14.7865 6.19575C14.9674 6.71737 15.3093 7.40242 15.9534 8.04656C16.5976 8.69069 17.2826 9.03255 17.8042 9.21352C18.0359 9.2939 18.2341 9.34207 18.3799 9.37057L18.9316 8.81896C19.9672 7.78328 19.9672 6.10412 18.9316 5.06844C17.8959 4.03277 16.2167 4.03277 15.181 5.06844L14.6294 5.62006Z" fill="currentcolor"/>
    </symbol>
    
    <symbol viewBox="0 0 24 24" fill="none" id="delete">
      <path fill-rule="evenodd" clip-rule="evenodd" d="M10.591 3.87495H13.4089C13.5892 3.87484 13.7463 3.87474 13.8947 3.89843C14.4808 3.99202 14.9879 4.35756 15.262 4.88397C15.3314 5.01721 15.381 5.16628 15.4379 5.33739L15.5309 5.61647C15.5467 5.66371 15.5512 5.67709 15.555 5.68762C15.7009 6.09105 16.0793 6.36377 16.5082 6.37464C16.5195 6.37492 16.5333 6.37497 16.5833 6.37497H19.0833C19.4285 6.37497 19.7083 6.65479 19.7083 6.99997C19.7083 7.34515 19.4285 7.62497 19.0833 7.62497H4.91656C4.57139 7.62497 4.29156 7.34515 4.29156 6.99997C4.29156 6.65479 4.57139 6.37497 4.91656 6.37497H7.41663C7.46667 6.37497 7.48048 6.37492 7.49176 6.37464C7.92063 6.36377 8.29899 6.09107 8.44492 5.68764C8.44875 5.67703 8.45317 5.66395 8.46899 5.61647L8.562 5.33741C8.61891 5.16631 8.6685 5.01721 8.73789 4.88397C9.01201 4.35756 9.51917 3.99202 10.1053 3.89843C10.2536 3.87474 10.4107 3.87484 10.591 3.87495ZM9.50669 6.37497C9.54962 6.29079 9.58765 6.20331 9.62038 6.11284C9.63031 6.08537 9.64006 6.05612 9.65258 6.01855L9.73575 5.76904C9.81173 5.54112 9.82922 5.49463 9.84657 5.4613C9.93795 5.28583 10.107 5.16399 10.3024 5.13279C10.3395 5.12687 10.3891 5.12497 10.6294 5.12497H13.3706C13.6108 5.12497 13.6605 5.12687 13.6976 5.13279C13.8929 5.16399 14.062 5.28583 14.1534 5.4613C14.1707 5.49463 14.1882 5.54111 14.2642 5.76904L14.3473 6.0184L14.3796 6.11286C14.4123 6.20332 14.4503 6.29079 14.4932 6.37497H9.50669Z" fill="currentcolor"/>
      <path d="M6.92914 9.04173C6.90618 8.69732 6.60836 8.43673 6.26395 8.45969C5.91954 8.48265 5.65895 8.78047 5.68191 9.12488L6.06812 14.918C6.13936 15.9869 6.19691 16.8504 6.33189 17.5279C6.47222 18.2324 6.7109 18.8208 7.2039 19.282C7.6969 19.7432 8.29985 19.9422 9.01206 20.0354C9.69708 20.125 10.5624 20.125 11.6337 20.125H12.3661C13.4374 20.125 14.3029 20.125 14.9879 20.0354C15.7001 19.9422 16.303 19.7432 16.796 19.282C17.289 18.8208 17.5277 18.2324 17.668 17.5279C17.803 16.8504 17.8606 15.987 17.9318 14.918L18.318 9.12488C18.341 8.78047 18.0804 8.48265 17.736 8.45969C17.3916 8.43673 17.0938 8.69732 17.0708 9.04173L16.6875 14.791C16.6126 15.9142 16.5593 16.6957 16.4421 17.2837C16.3285 17.8541 16.1699 18.156 15.9421 18.3692C15.7142 18.5823 15.4024 18.7205 14.8257 18.796C14.2312 18.8737 13.4479 18.875 12.3222 18.875H11.6777C10.552 18.875 9.76869 18.8737 9.17419 18.796C8.59752 18.7205 8.28573 18.5823 8.05788 18.3692C7.83004 18.156 7.67143 17.8541 7.5578 17.2837C7.44066 16.6957 7.3873 15.9142 7.31242 14.791L6.92914 9.04173Z" fill="currentcolor"/>
      <path d="M9.85445 10.5447C10.1979 10.5104 10.5042 10.761 10.5385 11.1044L10.9552 15.2711C10.9896 15.6146 10.739 15.9209 10.3955 15.9552C10.052 15.9895 9.74576 15.739 9.71141 15.3955L9.29474 11.2288C9.2604 10.8854 9.51099 10.5791 9.85445 10.5447Z" fill="currentcolor"/>
      <path d="M14.1455 10.5447C14.489 10.5791 14.7396 10.8854 14.7052 11.2288L14.2885 15.3955C14.2542 15.739 13.9479 15.9895 13.6045 15.9552C13.261 15.9209 13.0104 15.6146 13.0447 15.2711L13.4614 11.1044C13.4958 10.761 13.802 10.5104 14.1455 10.5447Z" fill="currentcolor"/>
    </symbol>

    <symbol viewBox="0 0 24 24" fill="none" id="empty">
      <path d="M6.15383 17.8461H11.423V14.0769H6.15383V17.8461ZM6.15383 12.923H11.423V6.15383H6.15383V12.923ZM12.5769 17.8461H17.8461V11.0769H12.5769V17.8461ZM12.5769 9.92305H17.8461V6.15383H12.5769V9.92305ZM5.3077 20.5C4.80257 20.5 4.375 20.3249 4.025 19.975C3.675 19.625 3.5 19.1974 3.5 18.6922V5.3077C3.5 4.80257 3.675 4.375 4.025 4.025C4.375 3.675 4.80257 3.5 5.3077 3.5H18.6922C19.1974 3.5 19.625 3.675 19.975 4.025C20.325 4.375 20.5 4.80257 20.5 5.3077V7.38462H22.2691V8.88457H20.5V11.25H22.2691V12.7499H20.5V15.1154H22.2691V16.6153H20.5V18.6922C20.5 19.1974 20.325 19.625 19.975 19.975C19.625 20.3249 19.1974 20.5 18.6922 20.5H5.3077ZM5.3077 19H18.6922C18.7692 19 18.8397 18.9679 18.9038 18.9038C18.9679 18.8397 19 18.7692 19 18.6922V5.3077C19 5.23077 18.9679 5.16024 18.9038 5.09613C18.8397 5.03203 18.7692 4.99998 18.6922 4.99998H5.3077C5.23077 4.99998 5.16024 5.03203 5.09612 5.09613C5.03202 5.16024 4.99997 5.23077 4.99997 5.3077V18.6922C4.99997 18.7692 5.03202 18.8397 5.09612 18.9038C5.16024 18.9679 5.23077 19 5.3077 19Z" fill="currentcolor"/>
    </symbol>

    <symbol viewBox="0 0 24 24" fill="none" id="calender">
      <path d="M8.99998 16.0578C8.35768 16.0578 7.81248 15.8337 7.3644 15.3857C6.91633 14.9376 6.6923 14.3924 6.6923 13.7501C6.6923 13.1078 6.91633 12.5626 7.3644 12.1145C7.81248 11.6665 8.35768 11.4424 8.99998 11.4424C9.64228 11.4424 10.1875 11.6665 10.6356 12.1145C11.0836 12.5626 11.3077 13.1078 11.3077 13.7501C11.3077 14.3924 11.0836 14.9376 10.6356 15.3857C10.1875 15.8337 9.64228 16.0578 8.99998 16.0578ZM5.3077 21.5001C4.80257 21.5001 4.375 21.3251 4.025 20.9751C3.675 20.6251 3.5 20.1975 3.5 19.6924V6.30784C3.5 5.80271 3.675 5.37514 4.025 5.02514C4.375 4.67514 4.80257 4.50014 5.3077 4.50014H6.69233V2.38477H8.23075V4.50014H15.8077V2.38477H17.3076V4.50014H18.6923C19.1974 4.50014 19.625 4.67514 19.975 5.02514C20.325 5.37514 20.5 5.80271 20.5 6.30784V19.6924C20.5 20.1975 20.325 20.6251 19.975 20.9751C19.625 21.3251 19.1974 21.5001 18.6923 21.5001H5.3077ZM5.3077 20.0001H18.6923C18.7692 20.0001 18.8397 19.9681 18.9038 19.904C18.9679 19.8398 19 19.7693 19 19.6924V10.3078H4.99997V19.6924C4.99997 19.7693 5.03202 19.8398 5.09612 19.904C5.16024 19.9681 5.23077 20.0001 5.3077 20.0001ZM4.99997 8.80787H19V6.30784C19 6.23091 18.9679 6.16038 18.9038 6.09627C18.8397 6.03217 18.7692 6.00012 18.6923 6.00012H5.3077C5.23077 6.00012 5.16024 6.03217 5.09612 6.09627C5.03202 6.16038 4.99997 6.23091 4.99997 6.30784V8.80787Z" fill="currentcolor"/>
    </symbol>

  </defs>
</svg>

